<svg width="378" height="317" viewBox="0 0 378 317" fill="none" xmlns="http://www.w3.org/2000/svg">
<path opacity="0.5" d="M172.897 295.775L377.234 165.707L294.008 112.809L164.452 204.207L105.666 278.394L172.897 295.775Z" fill="#0F054C"/>
<path opacity="0.5" d="M277.931 99.5868C280.173 93.0998 265.056 81.8405 244.166 74.4384C223.277 67.0363 204.526 66.2945 202.284 72.7815C200.042 79.2685 215.159 90.5279 236.048 97.93C256.938 105.332 275.689 106.074 277.931 99.5868Z" fill="#0F054C"/>
<path d="M255.182 49.2038L254.909 42.5281L253.39 38.6211L252.417 41.8513L255.182 49.2038Z" fill="#DD821F"/>
<path d="M185.991 50.4823L185.733 43.9297C185.733 43.9297 191.202 49.4517 191.202 49.5902C191.217 49.7132 185.991 50.4823 185.991 50.4823Z" fill="#FFD85A"/>
<path d="M221.065 69.892C240.174 69.4306 255.319 59.6016 254.924 42.5124C254.514 25.4386 238.701 11.9641 219.607 12.4256C200.498 12.887 185.353 27.0998 185.748 44.189C186.143 61.2782 201.956 70.3689 221.065 69.892Z" fill="#FFD85A"/>
<path d="M221.307 80.9745C240.412 80.512 255.573 66.2921 255.17 49.2135C254.767 32.1349 238.952 18.6649 219.847 19.1274C200.742 19.5899 185.582 33.8098 185.985 50.8884C186.388 67.967 202.202 81.437 221.307 80.9745Z" fill="#FFD85A"/>
<path d="M244.731 27.7617C251.005 33.1915 254.984 40.7593 255.182 49.204C255.592 66.2778 240.432 80.506 221.323 80.9674C211.875 81.1981 203.232 78.0141 196.867 72.6766L244.731 27.7617Z" fill="#DD821F"/>
<path d="M221.274 79.5957C239.523 79.1539 254.005 65.5704 253.62 49.2561C253.235 32.9418 238.129 20.0747 219.879 20.5165C201.63 20.9583 187.148 34.5418 187.533 50.856C187.918 67.1703 203.024 80.0375 221.274 79.5957Z" fill="#F9BF30"/>
<path d="M221.137 73.7654C235.789 73.4107 247.416 62.5071 247.107 49.4115C246.797 36.3159 234.669 25.9874 220.018 26.3421C205.366 26.6968 193.739 37.6004 194.048 50.696C194.358 63.7916 206.486 74.1201 221.137 73.7654Z" fill="#F2B42A"/>
<path d="M194.057 50.6806C194.042 50.1422 194.057 49.6039 194.087 49.0655C195.303 61.3863 207.029 70.8615 221.065 70.5231C235.116 70.1847 246.372 60.1404 246.995 47.7734C247.04 48.3118 247.086 48.8348 247.101 49.3885C247.405 62.4785 235.784 73.3842 221.141 73.7533C206.498 74.1071 194.376 63.7705 194.057 50.6806Z" fill="#FFD85A"/>
<path d="M215.506 52.0326L220.944 46.9258C226.184 48.1256 235.951 50.3867 243.744 52.2325C241.8 58.1391 237.076 63.0152 230.893 65.5993L215.506 52.0326Z" fill="#FFD85A"/>
<path d="M224.058 67.4281C223.192 67.5358 222.311 67.5973 221.414 67.6281C215.004 67.7819 209.156 65.6592 204.781 62.0752L213.668 53.7383L224.058 67.4281Z" fill="#FFD85A"/>
<path d="M226.777 41.4496L237.03 31.8359C240.478 34.8815 243.562 38.2502 244.397 42.7416L226.777 41.4496Z" fill="#FFD85A"/>
<path d="M221.414 29.1591C206.771 29.5129 195.136 40.4186 195.455 53.5239C195.515 56.1849 196.077 58.7075 197.034 61.0763C195.227 57.9692 194.163 54.4468 194.072 50.6936C193.769 37.6037 205.389 26.698 220.032 26.3288C231.713 26.0519 241.784 32.5585 245.551 41.8491C241.04 34.0966 231.865 28.8976 221.414 29.1591Z" fill="#DD821F"/>
<path d="M254.909 42.5256C254.969 45.0636 255.197 46.9094 254.605 49.2782C253.845 46.7709 252.19 39.28 252.19 39.28L249.562 33.3272L247.374 31.4968L243.668 28.7588L243.364 20.1758C250.276 25.6517 254.711 33.5887 254.909 42.5256Z" fill="#DD821F"/>
<path d="M187.981 41.6527L187.829 39.8992C187.829 39.6531 187.632 39.4531 187.389 39.4531H187.252C187.024 39.4531 186.827 39.6685 186.842 39.9146L186.994 41.6681C186.994 41.9142 187.191 42.1142 187.434 42.1142H187.571C187.799 42.1142 187.981 41.8989 187.981 41.6527Z" fill="#DD821F"/>
<path d="M191.019 34.8996L190.837 31.731C190.837 31.4387 190.609 31.208 190.336 31.2234H190.032C189.758 31.2234 189.561 31.4695 189.561 31.7617L189.743 34.9304C189.743 35.2226 189.971 35.438 190.244 35.438H190.548C190.807 35.438 191.019 35.1919 191.019 34.8996Z" fill="#DD821F"/>
<path d="M195.227 29.0253L195.045 25.9643C195.029 25.6413 194.786 25.3798 194.483 25.3952L193.951 25.4106C193.647 25.4106 193.419 25.6874 193.419 26.0105L193.601 29.0714C193.617 29.3945 193.86 29.656 194.164 29.6406L194.695 29.6252C194.999 29.6252 195.242 29.3483 195.227 29.0253Z" fill="#DD821F"/>
<path d="M201.531 24.2688L201.333 20.5464C201.318 20.2233 201.075 19.9618 200.771 19.9772L200.24 19.9926C199.936 19.9926 199.708 20.2695 199.708 20.5925L199.905 24.3149C199.921 24.6379 200.164 24.8994 200.467 24.884L200.999 24.8687C201.303 24.8687 201.546 24.5918 201.531 24.2688Z" fill="#DD821F"/>
<path d="M207.88 21.1623L207.683 16.8862C207.667 16.5632 207.424 16.3017 207.121 16.3171L206.589 16.3324C206.285 16.3324 206.057 16.6093 206.057 16.9323L206.255 21.2085C206.27 21.5315 206.513 21.793 206.817 21.7776L207.348 21.7622C207.652 21.7468 207.88 21.4853 207.88 21.1623Z" fill="#DD821F"/>
<path d="M214.26 19.2585L214.063 15.1362C214.063 14.8132 213.804 14.5517 213.501 14.5671L212.969 14.5824C212.665 14.5824 212.437 14.8593 212.437 15.1823L212.635 19.3046C212.65 19.6276 212.893 19.8891 213.197 19.8737L213.728 19.8584C214.017 19.8584 214.26 19.5815 214.26 19.2585Z" fill="#DD821F"/>
<path d="M220.655 18.6091L220.458 14.4253C220.442 14.1022 220.199 13.8407 219.895 13.8561L219.364 13.8715C219.06 13.8715 218.832 14.1484 218.832 14.4714L219.03 18.6553C219.045 18.9783 219.288 19.2398 219.592 19.2244L220.123 19.209C220.427 19.1936 220.67 18.9321 220.655 18.6091Z" fill="#DD821F"/>
<path d="M227.08 18.7421L226.883 14.8198C226.868 14.4967 226.625 14.2353 226.321 14.2506L225.789 14.266C225.485 14.266 225.258 14.5429 225.258 14.8659L225.455 18.7883C225.47 19.1113 225.713 19.3727 226.017 19.3574L226.549 19.342C226.853 19.3266 227.08 19.0651 227.08 18.7421Z" fill="#DD821F"/>
<path d="M233.536 20.1623L233.339 16.3784C233.323 16.0553 233.08 15.7939 232.777 15.8092L232.245 15.8246C231.941 15.8246 231.713 16.1015 231.713 16.4245L231.911 20.2238C231.926 20.5468 232.169 20.8083 232.473 20.7929L233.004 20.7775C233.308 20.7622 233.536 20.4853 233.536 20.1623Z" fill="#DD821F"/>
<path d="M240.022 23.3642L239.825 19.2573C239.825 18.9343 239.567 18.6728 239.263 18.6881L238.731 18.7035C238.427 18.7035 238.199 18.9804 238.199 19.3034L238.397 23.4104C238.412 23.7334 238.655 23.9949 238.959 23.9795L239.491 23.9641C239.794 23.9488 240.037 23.6873 240.022 23.3642Z" fill="#DD821F"/>
<path d="M0.535767 215.499L0.581335 229.343H0.596493C0.581303 229.527 0.687667 229.712 0.915518 229.85L149.596 316.234C150.082 316.511 150.933 316.481 151.479 316.157L175.708 301.899C175.981 301.745 176.118 301.545 176.148 301.345V301.329C176.148 301.314 176.148 301.299 176.148 301.283L176.103 287.301L164.345 294.1L27.1639 214.391C26.6779 214.115 25.8272 214.145 25.2804 214.468L16.9714 219.36L0.535767 215.499Z" fill="url(#paint0_linear_203_867)"/>
<path d="M27.1032 200.484L175.784 286.868C176.27 287.145 176.209 287.652 175.647 287.975L151.419 302.234C150.857 302.557 150.021 302.604 149.535 302.311L0.854785 215.927C0.368703 215.65 0.429457 215.143 0.99149 214.82L25.2197 200.561C25.7817 200.238 26.6171 200.191 27.1032 200.484Z" fill="url(#paint1_linear_203_867)"/>
<path opacity="0.6" d="M32.4805 221.298L149.307 287.932C150.173 283.24 151.525 278.487 153.302 273.796L36.6881 206.039C34.759 211.1 33.3311 216.253 32.4805 221.298Z" fill="#24126A"/>
<path d="M21.9538 208.466L162.143 289.928C162.477 290.128 162.432 290.467 162.052 290.682L155.961 294.266C155.581 294.497 155.004 294.512 154.669 294.327L14.4803 212.865C14.1461 212.665 14.1917 212.327 14.5714 212.112L20.6627 208.528C21.0424 208.297 21.6348 208.282 21.9538 208.466Z" fill="#24126A"/>
<path d="M14.4955 212.868L17.3512 214.529L20.6322 212.591C21.012 212.36 21.5892 212.345 21.9234 212.529L159.272 292.33L162.067 290.684C162.447 290.454 162.492 290.115 162.158 289.931L21.969 208.469C21.6348 208.269 21.0576 208.299 20.6778 208.53L14.5866 212.114C14.1917 212.329 14.1613 212.668 14.4955 212.868Z" fill="#453C9E"/>
<path opacity="0.96" d="M375.366 68.1707L258.737 0.398438C258.797 21.5638 244.184 47.3284 226.123 57.9572L65.3974 152.509C44.1617 164.999 26.9969 195.286 27.0577 220.158L143.687 287.931C143.626 263.058 160.791 232.772 182.027 220.281L342.753 125.729C360.814 115.101 375.411 89.3361 375.366 68.1707Z" fill="url(#paint2_linear_203_867)"/>
<path opacity="0.8" d="M27.0577 220.174L143.687 287.947C143.687 286.855 143.733 285.747 143.793 284.64H143.778L27.164 216.883C27.0881 217.975 27.0577 219.082 27.0577 220.174Z" fill="#453C9E"/>
<g opacity="0.32">
<path opacity="0.32" d="M195.941 169.352L222.356 184.703L219.82 186.195L193.404 170.844L195.941 169.352Z" fill="#453C9E"/>
<path opacity="0.32" d="M182.391 161.477L191.9 167.014L189.363 168.506L179.854 162.984L182.391 161.477Z" fill="#453C9E"/>
<path opacity="0.32" d="M171.895 155.383L178.351 159.136L175.814 160.628L169.358 156.875L171.895 155.383Z" fill="#453C9E"/>
<path opacity="0.32" d="M213.774 172.922L228.159 181.29L225.622 182.782L211.222 174.414L213.774 172.922Z" fill="#453C9E"/>
<path opacity="0.32" d="M192.098 160.324L209.733 170.584L207.197 172.076L189.546 161.832L192.098 160.324Z" fill="#453C9E"/>
<path opacity="0.32" d="M181.601 154.23L188.057 157.984L185.52 159.476L179.049 155.722L181.601 154.23Z" fill="#453C9E"/>
<path opacity="0.32" d="M171.606 148.418L178.062 152.187L175.525 153.679L169.07 149.925L171.606 148.418Z" fill="#453C9E"/>
<path opacity="0.32" d="M223.556 171.828L233.961 177.873L231.425 179.365L221.004 173.32L223.556 171.828Z" fill="#453C9E"/>
<path opacity="0.32" d="M215.961 167.414L219.516 169.475L216.979 170.967L213.409 168.906L215.961 167.414Z" fill="#453C9E"/>
<path opacity="0.32" d="M205.465 161.305L211.921 165.058L209.384 166.55L202.913 162.797L205.465 161.305Z" fill="#453C9E"/>
<path opacity="0.32" d="M201.333 152.125L239.779 174.459L237.227 175.951L198.797 153.617L201.333 152.125Z" fill="#453C9E"/>
<path opacity="0.32" d="M187.784 144.25L197.293 149.772L194.756 151.28L185.247 145.742L187.784 144.25Z" fill="#453C9E"/>
<path opacity="0.32" d="M235.162 164.984L245.582 171.045L243.03 172.537L232.625 166.492L235.162 164.984Z" fill="#453C9E"/>
<path opacity="0.32" d="M210.721 150.785L231.121 162.644L228.584 164.137L208.184 152.277L210.721 150.785Z" fill="#453C9E"/>
<path opacity="0.32" d="M200.224 144.695L206.68 148.448L204.143 149.941L197.688 146.187L200.224 144.695Z" fill="#453C9E"/>
<path opacity="0.32" d="M230.073 155.246L251.385 167.629L248.848 169.121L227.536 156.738L230.073 155.246Z" fill="#453C9E"/>
<path opacity="0.32" d="M210.63 143.941L226.032 152.894L223.496 154.401L208.093 145.449L210.63 143.941Z" fill="#453C9E"/>
<path opacity="0.32" d="M196.184 135.559L206.589 141.604L204.052 143.096L193.632 137.051L196.184 135.559Z" fill="#453C9E"/>
<path opacity="0.32" d="M249.987 160.031L257.187 164.215L254.65 165.707L247.45 161.523L249.987 160.031Z" fill="#453C9E"/>
<path opacity="0.32" d="M236.437 152.156L245.962 157.694L243.41 159.186L233.901 153.648L236.437 152.156Z" fill="#453C9E"/>
<path opacity="0.32" d="M217.085 140.91L232.412 149.816L229.875 151.308L214.549 142.402L217.085 140.91Z" fill="#453C9E"/>
<path opacity="0.32" d="M240.949 147.988L262.99 160.801L260.453 162.293L238.412 149.48L240.949 147.988Z" fill="#453C9E"/>
<path opacity="0.32" d="M216.25 133.637L236.908 145.65L234.372 147.142L213.713 135.144L216.25 133.637Z" fill="#453C9E"/>
<path opacity="0.32" d="M205.754 127.543L212.225 131.296L209.673 132.788L203.217 129.035L205.754 127.543Z" fill="#453C9E"/>
<path opacity="0.32" d="M195.683 121.684L202.138 125.437L199.602 126.929L193.146 123.176L195.683 121.684Z" fill="#453C9E"/>
<path opacity="0.32" d="M255.592 149.711L268.792 157.386L266.256 158.878L253.055 151.203L255.592 149.711Z" fill="#453C9E"/>
<path opacity="0.32" d="M142.35 138.218L124.046 127.574L121.494 129.066L139.813 139.711L142.35 138.218Z" fill="#453C9E"/>
<path opacity="0.32" d="M144.234 132.528L129.849 124.16L127.312 125.652L141.697 134.02L144.234 132.528Z" fill="#453C9E"/>
<path opacity="0.32" d="M146.072 126.791L135.651 120.746L133.115 122.238L143.52 128.298L146.072 126.791Z" fill="#453C9E"/>
<path opacity="0.32" d="M156.599 126.127L141.454 117.328L138.917 118.82L154.062 127.619L156.599 126.127Z" fill="#453C9E"/>
<path opacity="0.32" d="M157.677 119.963L147.257 113.918L144.72 115.41L155.14 121.47L157.677 119.963Z" fill="#453C9E"/>
<path opacity="0.32" d="M166.275 118.176L153.074 110.5L150.523 111.992L163.738 119.668L166.275 118.176Z" fill="#453C9E"/>
<path opacity="0.32" d="M166.077 111.27L158.877 107.086L156.325 108.578L163.525 112.762L166.077 111.27Z" fill="#453C9E"/>
<path opacity="0.32" d="M178.624 111.778L164.68 103.672L162.143 105.164L176.087 113.27L178.624 111.778Z" fill="#453C9E"/>
<path opacity="0.32" d="M183.698 107.929L170.482 100.254L167.946 101.746L181.146 109.422L183.698 107.929Z" fill="#453C9E"/>
<path opacity="0.32" d="M245.946 144.094L251.552 147.355L249.015 148.862L243.395 145.586L245.946 144.094Z" fill="#453C9E"/>
<path opacity="0.32" d="M229.253 134.406L241.906 141.759L239.369 143.251L226.716 135.898L229.253 134.406Z" fill="#453C9E"/>
<path opacity="0.32" d="M245.05 108.211L266.392 120.609L263.84 122.101L242.513 109.703L245.05 108.211Z" fill="#453C9E"/>
<path opacity="0.32" d="M230.437 99.7188L238.838 104.595L236.301 106.087L227.901 101.211L230.437 99.7188Z" fill="#453C9E"/>
</g>
<path opacity="0.3" d="M219.125 180.194C222.013 171.838 202.547 157.338 175.647 147.806C148.748 138.274 124.601 137.321 121.714 145.676C118.826 154.031 138.292 168.532 165.191 178.064C192.091 187.595 216.238 188.549 219.125 180.194Z" fill="#0F054C"/>
<path d="M189.819 115.304L189.485 106.706L187.51 101.676L186.265 105.844L189.819 115.304Z" fill="#DD821F"/>
<path d="M100.745 116.949L100.41 108.52C100.41 108.52 107.459 115.641 107.459 115.811C107.474 115.98 100.745 116.949 100.745 116.949Z" fill="#FFD85A"/>
<path d="M145.89 141.958C170.482 141.358 190.001 128.699 189.47 106.718C188.953 84.7378 168.599 67.4025 144.006 67.987C119.413 68.5869 99.894 86.8913 100.426 108.872C100.942 130.852 121.297 142.543 145.89 141.958Z" fill="#FFD85A"/>
<path d="M146.215 156.213C170.805 155.618 190.318 137.311 189.799 115.324C189.28 93.3365 168.925 75.9948 144.335 76.5901C119.746 77.1854 100.232 95.4922 100.751 117.48C101.27 139.467 121.625 156.809 146.215 156.213Z" fill="#FFD85A"/>
<path d="M176.376 87.707C184.457 94.7058 189.576 104.427 189.819 115.302C190.336 137.283 170.832 155.587 146.239 156.187C134.072 156.479 122.953 152.388 114.75 145.512L176.376 87.707Z" fill="#DD821F"/>
<path d="M146.176 154.42C169.667 153.852 188.308 136.365 187.813 115.363C187.317 94.3607 167.871 77.7961 144.38 78.3648C120.889 78.9335 102.247 96.4202 102.743 117.422C103.239 138.425 122.685 154.989 146.176 154.42Z" fill="#F9BF30"/>
<path d="M145.997 146.92C164.859 146.463 179.827 132.427 179.429 115.569C179.031 98.7116 163.418 85.4158 144.556 85.8724C125.694 86.3291 110.726 100.365 111.124 117.223C111.522 134.081 127.135 147.377 145.997 146.92Z" fill="#F2B42A"/>
<path d="M111.135 117.21C111.119 116.518 111.135 115.826 111.18 115.134C112.745 130.993 127.844 143.206 145.92 142.76C163.996 142.329 178.487 129.408 179.308 113.473C179.368 114.165 179.429 114.842 179.444 115.549C179.839 132.408 164.877 146.451 146.011 146.913C127.145 147.374 111.545 134.069 111.135 117.21Z" fill="#FFD85A"/>
<path d="M138.735 118.966L145.738 112.398C152.482 113.952 165.059 116.844 175.1 119.243C172.609 126.857 166.518 133.133 158.558 136.456L138.735 118.966Z" fill="#FFD85A"/>
<path d="M149.763 138.777C148.654 138.915 147.515 139.007 146.376 139.038C138.127 139.238 130.578 136.5 124.973 131.901L136.411 121.18L149.763 138.777Z" fill="#FFD85A"/>
<path d="M153.257 105.335L166.457 92.9531C170.892 96.8755 174.857 101.213 175.935 106.997L153.257 105.335Z" fill="#FFD85A"/>
<path d="M146.36 89.5049C127.494 89.9663 112.532 103.995 112.927 120.868C113.003 124.283 113.717 127.56 114.947 130.59C112.623 126.59 111.241 122.053 111.135 117.223C110.74 100.364 125.702 86.3208 144.568 85.8594C159.606 85.4902 172.578 93.8733 177.409 105.84C171.606 95.8576 159.819 89.1819 146.36 89.5049Z" fill="#DD821F"/>
<path d="M189.485 106.701C189.561 109.978 189.865 112.347 189.105 115.408C188.118 112.177 185.991 102.533 185.991 102.533L182.604 94.8729L179.778 92.5194L174.994 88.997L174.599 77.9375C183.5 84.9824 189.212 95.2113 189.485 106.701Z" fill="#DD821F"/>
<path d="M103.297 105.577L103.114 103.316C103.099 102.993 102.856 102.731 102.552 102.747H102.385C102.081 102.747 101.854 103.024 101.854 103.347L102.036 105.608C102.051 105.931 102.294 106.192 102.598 106.177H102.765C103.069 106.177 103.312 105.9 103.297 105.577Z" fill="#DD821F"/>
<path d="M107.216 96.9056L106.988 92.8294C106.973 92.4602 106.699 92.168 106.35 92.168L105.955 92.1833C105.605 92.1987 105.347 92.491 105.347 92.8755L105.575 96.9517C105.59 97.3209 105.864 97.6131 106.213 97.6131L106.608 97.5978C106.957 97.5824 107.231 97.2748 107.216 96.9056Z" fill="#DD821F"/>
<path d="M112.638 89.3209L112.411 85.3677C112.395 84.9524 112.076 84.614 111.697 84.6294L111.013 84.6448C110.618 84.6602 110.314 84.9986 110.33 85.4139L110.557 89.367C110.573 89.7823 110.892 90.1207 111.271 90.1053L111.955 90.0899C112.335 90.0899 112.654 89.7515 112.638 89.3209Z" fill="#DD821F"/>
<path d="M120.765 83.214L120.522 78.4302C120.507 78.0149 120.188 77.6765 119.808 77.6919L119.125 77.7073C118.73 77.7227 118.426 78.0611 118.441 78.4764L118.684 83.2602C118.699 83.6755 119.018 84.0139 119.398 83.9985L120.082 83.9831C120.461 83.9831 120.765 83.6293 120.765 83.214Z" fill="#DD821F"/>
<path d="M128.922 79.1986L128.664 73.692C128.649 73.2767 128.33 72.9382 127.95 72.9536L127.266 72.969C126.872 72.9844 126.568 73.3228 126.583 73.7381L126.841 79.2448C126.856 79.6601 127.175 79.9985 127.555 79.9831L128.239 79.9677C128.634 79.9677 128.937 79.6139 128.922 79.1986Z" fill="#DD821F"/>
<path d="M137.14 76.7489L136.882 71.4576C136.867 71.0423 136.548 70.7039 136.168 70.7193L135.484 70.7346C135.089 70.75 134.785 71.0884 134.801 71.5037L135.059 76.795C135.074 77.2103 135.393 77.5488 135.773 77.5334L136.456 77.518C136.836 77.5026 137.14 77.1642 137.14 76.7489Z" fill="#DD821F"/>
<path d="M145.373 75.9076L145.115 70.524C145.1 70.1087 144.781 69.7703 144.401 69.7857L143.717 69.8011C143.322 69.8164 143.019 70.1548 143.034 70.5702L143.292 75.9538C143.307 76.3691 143.626 76.7075 144.006 76.6921L144.69 76.6767C145.085 76.6767 145.388 76.3383 145.373 75.9076Z" fill="#DD821F"/>
<path d="M153.652 76.0927L153.393 71.0474C153.378 70.6321 153.059 70.2937 152.679 70.3091L151.996 70.3245C151.601 70.3399 151.297 70.6783 151.312 71.0936L151.571 76.1388C151.586 76.5541 151.905 76.8925 152.285 76.8771L152.968 76.8618C153.348 76.8618 153.652 76.508 153.652 76.0927Z" fill="#DD821F"/>
<path d="M161.961 77.9235L161.718 73.0474C161.702 72.6321 161.383 72.2937 161.004 72.3091L160.32 72.3245C159.925 72.3399 159.621 72.6783 159.637 73.0936L159.88 77.9696C159.895 78.3849 160.214 78.7233 160.594 78.7079L161.277 78.6926C161.657 78.6926 161.961 78.3388 161.961 77.9235Z" fill="#DD821F"/>
<path d="M170.315 82.0263L170.057 76.7349C170.042 76.3196 169.723 75.9812 169.343 75.9966L168.659 76.012C168.265 76.0274 167.961 76.3658 167.976 76.7811L168.234 82.0724C168.249 82.4877 168.568 82.8261 168.948 82.8107L169.632 82.7953C170.011 82.7953 170.33 82.4569 170.315 82.0263Z" fill="#DD821F"/>
<path opacity="0.5" d="M366.521 286.797C369.056 279.46 351.969 266.729 328.356 258.362C304.743 249.995 283.545 249.159 281.01 256.496C278.474 263.833 295.561 276.564 319.174 284.932C342.788 293.299 363.985 294.134 366.521 286.797Z" fill="#0F054C"/>
<path d="M340.793 229.831L340.505 222.293L338.773 217.879L337.664 221.524L340.793 229.831Z" fill="#DD821F"/>
<path d="M262.595 231.278L262.306 223.879C262.306 223.879 268.489 230.124 268.489 230.278C268.504 230.416 262.595 231.278 262.595 231.278Z" fill="#FFD85A"/>
<path d="M302.241 253.229C323.826 252.706 340.96 241.585 340.505 222.296C340.049 202.992 322.17 187.779 300.585 188.302C279 188.825 261.866 204.899 262.321 224.203C262.777 243.492 280.64 253.752 302.241 253.229Z" fill="#FFD85A"/>
<path d="M302.507 265.759C324.094 265.237 341.225 249.164 340.769 229.861C340.313 210.557 322.444 195.332 300.856 195.855C279.269 196.377 262.138 212.45 262.594 231.753C263.05 251.057 280.919 266.282 302.507 265.759Z" fill="#FFD85A"/>
<path d="M328.99 205.605C336.084 211.743 340.581 220.295 340.793 229.832C341.249 249.136 324.114 265.21 302.529 265.733C291.851 265.995 282.084 262.395 274.883 256.366L328.99 205.605Z" fill="#DD821F"/>
<path d="M302.468 264.2C323.091 263.7 339.457 248.349 339.021 229.912C338.586 211.474 321.515 196.933 300.892 197.432C280.269 197.931 263.904 213.282 264.339 231.72C264.774 250.157 281.845 264.699 302.468 264.2Z" fill="#F9BF30"/>
<path d="M302.319 257.606C318.874 257.205 332.012 244.88 331.662 230.078C331.313 215.275 317.609 203.6 301.053 204.001C284.498 204.402 271.361 216.726 271.71 231.529C272.06 246.332 285.764 258.007 302.319 257.606Z" fill="#F2B42A"/>
<path d="M271.724 231.507C271.709 230.892 271.724 230.292 271.754 229.676C273.137 243.597 286.382 254.318 302.256 253.933C318.13 253.549 330.859 242.213 331.573 228.23C331.634 228.83 331.679 229.446 331.694 230.046C332.044 244.843 318.904 257.179 302.347 257.579C285.775 257.994 272.073 246.319 271.724 231.507Z" fill="#FFD85A"/>
<path d="M295.952 233.046L302.104 227.277C308.028 228.631 319.056 231.184 327.882 233.276C325.694 239.952 320.347 245.474 313.36 248.397L295.952 233.046Z" fill="#FFD85A"/>
<path d="M305.628 250.443C304.656 250.566 303.653 250.643 302.651 250.674C295.405 250.843 288.782 248.443 283.861 244.398L293.901 234.984L305.628 250.443Z" fill="#FFD85A"/>
<path d="M308.697 221.078L320.287 210.219C324.175 213.664 327.669 217.464 328.611 222.54L308.697 221.078Z" fill="#FFD85A"/>
<path d="M302.636 207.186C286.079 207.586 272.939 219.907 273.289 234.72C273.365 237.719 273.987 240.58 275.066 243.257C273.015 239.734 271.815 235.75 271.724 231.52C271.375 216.723 284.514 204.387 301.071 203.987C314.271 203.664 325.664 211.032 329.902 221.522C324.813 212.754 314.454 206.894 302.636 207.186Z" fill="#DD821F"/>
<path d="M340.505 222.296C340.565 225.172 340.839 227.249 340.17 229.941C339.305 227.11 337.436 218.635 337.436 218.635L334.459 211.898L331.983 209.837L327.791 206.745L327.441 197.039C335.249 203.223 340.262 212.19 340.505 222.296Z" fill="#DD821F"/>
<path d="M264.843 221.297L264.676 219.312C264.676 219.02 264.448 218.805 264.19 218.805H264.038C263.78 218.805 263.567 219.051 263.567 219.328L263.734 221.312C263.734 221.604 263.962 221.82 264.22 221.82H264.372C264.63 221.82 264.843 221.589 264.843 221.297Z" fill="#DD821F"/>
<path d="M268.276 213.681L268.078 210.113C268.063 209.79 267.82 209.528 267.516 209.544L267.167 209.559C266.863 209.559 266.635 209.836 266.635 210.159L266.833 213.727C266.848 214.05 267.091 214.312 267.395 214.297L267.744 214.281C268.048 214.281 268.276 214.004 268.276 213.681Z" fill="#DD821F"/>
<path d="M273.03 207.041L272.833 203.58C272.818 203.211 272.544 202.919 272.195 202.934L271.602 202.95C271.268 202.965 270.995 203.257 270.995 203.626L271.192 207.087C271.208 207.456 271.481 207.749 271.83 207.733L272.423 207.718C272.772 207.703 273.046 207.41 273.03 207.041Z" fill="#DD821F"/>
<path d="M280.17 201.67L279.957 197.471C279.942 197.102 279.668 196.809 279.319 196.825L278.727 196.84C278.392 196.856 278.119 197.148 278.119 197.517L278.332 201.716C278.347 202.085 278.62 202.378 278.97 202.362L279.562 202.347C279.911 202.332 280.17 202.039 280.17 201.67Z" fill="#DD821F"/>
<path d="M287.339 198.148L287.112 193.303C287.096 192.934 286.823 192.641 286.474 192.657L285.881 192.672C285.547 192.688 285.274 192.98 285.274 193.349L285.501 198.194C285.517 198.563 285.79 198.856 286.139 198.84L286.732 198.825C287.081 198.81 287.339 198.517 287.339 198.148Z" fill="#DD821F"/>
<path d="M294.539 195.995L294.312 191.35C294.296 190.981 294.023 190.688 293.674 190.704L293.081 190.719C292.747 190.734 292.474 191.027 292.474 191.396L292.701 196.041C292.717 196.41 292.99 196.702 293.339 196.687L293.932 196.672C294.281 196.672 294.555 196.364 294.539 195.995Z" fill="#DD821F"/>
<path d="M301.785 195.256L301.557 190.533C301.542 190.164 301.269 189.872 300.919 189.887L300.327 189.903C299.993 189.918 299.719 190.21 299.719 190.579L299.947 195.302C299.962 195.671 300.236 195.963 300.585 195.948L301.178 195.932C301.512 195.932 301.785 195.625 301.785 195.256Z" fill="#DD821F"/>
<path d="M309.031 195.405L308.803 190.975C308.788 190.606 308.514 190.313 308.165 190.329L307.573 190.344C307.238 190.359 306.965 190.652 306.965 191.021L307.193 195.451C307.208 195.82 307.481 196.112 307.831 196.097L308.423 196.082C308.773 196.082 309.046 195.774 309.031 195.405Z" fill="#DD821F"/>
<path d="M316.337 197.024L316.124 192.733C316.109 192.363 315.836 192.071 315.487 192.087L314.894 192.102C314.56 192.117 314.286 192.41 314.286 192.779L314.499 197.07C314.514 197.439 314.788 197.732 315.137 197.716L315.73 197.701C316.064 197.701 316.337 197.393 316.337 197.024Z" fill="#DD821F"/>
<path d="M323.674 200.62L323.446 195.975C323.431 195.606 323.158 195.313 322.808 195.329L322.216 195.344C321.882 195.359 321.608 195.652 321.608 196.021L321.836 200.666C321.851 201.035 322.125 201.328 322.474 201.312L323.066 201.297C323.416 201.297 323.674 200.989 323.674 200.62Z" fill="#DD821F"/>
<defs>
<linearGradient id="paint0_linear_203_867" x1="182.517" y1="263.473" x2="20.7814" y2="266.557" gradientUnits="userSpaceOnUse">
<stop stop-color="#5761D7"/>
<stop offset="0.0398" stop-color="#5C66D9"/>
<stop offset="0.0867" stop-color="#6A73DF"/>
<stop offset="0.1372" stop-color="#8289E8"/>
<stop offset="0.1899" stop-color="#A3A7F5"/>
<stop offset="0.2237" stop-color="#BCBEFF"/>
</linearGradient>
<linearGradient id="paint1_linear_203_867" x1="134.49" y1="178.729" x2="71.2714" y2="275.764" gradientUnits="userSpaceOnUse">
<stop stop-color="#C0BFF6"/>
<stop offset="0.2938" stop-color="#C5C4F7"/>
<stop offset="0.6399" stop-color="#D3D2F9"/>
<stop offset="1" stop-color="#E9E9FD"/>
</linearGradient>
<linearGradient id="paint2_linear_203_867" x1="282.456" y1="2.55842" x2="110.586" y2="291.747" gradientUnits="userSpaceOnUse">
<stop stop-color="#C0BFF6"/>
<stop offset="0.1172" stop-color="#D0CFF9"/>
<stop offset="0.2627" stop-color="#E9E9FD"/>
<stop offset="0.5143" stop-color="#C0BFF6"/>
<stop offset="0.6217" stop-color="#D0CFF9"/>
<stop offset="0.755" stop-color="#E9E9FD"/>
<stop offset="1" stop-color="#C0BFF6"/>
</linearGradient>
</defs>
</svg>
