<svg xmlns="http://www.w3.org/2000/svg" xmlns:xlink="http://www.w3.org/1999/xlink" viewBox="0 0 455.61 491.12"><defs><style>.cls-1{fill:none;clip-rule:evenodd;}.cls-2{clip-path:url(#clip-path);}.cls-3{fill:url(#Безымянный_градиент_2);}</style><clipPath id="clip-path"><path class="cls-1" d="M227.8,98.38a37.73,37.73,0,1,1-37.72,37.72A37.72,37.72,0,0,1,227.8,98.38m73-50.91a227.61,227.61,0,1,1-146,0A198.92,198.92,0,0,0,141,80.69,202.22,202.22,0,0,0,70.28,390c10-5.73,25.27-7.72,35.35,1.12,19-22.25,52.71-22.66,68.34,2.71a39.9,39.9,0,0,0-7.57-20.61q28.08-16.17,30.82-83.86l31.85.28h0l31.85-.28q2.73,67.69,30.82,83.86a39.9,39.9,0,0,0-7.57,20.61c15.63-25.37,49.32-25,68.34-2.71,9.5-8.33,23.61-7,33.56-2.07A202.29,202.29,0,0,0,314.6,80.69,199.81,199.81,0,0,0,300.82,47.47ZM120.19,152.33c-12.75.26-14.31,5.86-15.18,14.64-.32-9.8-4.77-14.93-14.21-15.18,9.09-.29,13.83-2.22,14.32-13.13C105.48,146.68,108.93,151.67,120.19,152.33Zm236.61,3.81c-12.75.26-14.31,5.86-15.18,14.64-.33-9.8-4.77-14.93-14.21-15.18,9.09-.28,13.82-2.22,14.32-13.13C342.09,150.5,345.54,155.48,356.8,156.14Zm40.43,163c-17.05.35-19.13,7.84-20.29,19.58-.44-13.1-6.38-20-19-20.3,12.15-.38,18.48-3,19.14-17.55C377.56,311.57,382.18,318.24,397.23,319.12Zm-291.31-28c-17,.35-19.13,7.83-20.29,19.57-.43-13.1-6.38-20-19-20.29,12.16-.38,18.49-3,19.15-17.56C86.26,283.59,90.87,290.26,105.92,291.14ZM152.3,167.27l-14.07,19.58c-8.41,11.7-8,14.08-7.15,22.71l12.28,114.91c.63,5.23,4.31,4.83,7.43-.91l33-67.45q4,5.7,8.45,11c5.49,6.55,10.38,7.15,18.12,7h34.9c7.75.15,12.64-.45,18.13-7q4.47-5.33,8.45-11l33,67.45c3.12,5.74,6.8,6.14,7.43.91l12.28-114.91c.85-8.63,1.26-11-7.15-22.71L303.3,167.27q.82-8.75.91-17.56c.39-41.51-11.62-83.92-36.44-115.86A134.17,134.17,0,0,0,231.65,1.29L231.1,1a6.13,6.13,0,0,0-6.59,0l-.55.33a134.14,134.14,0,0,0-36.12,32.55C163,65.78,151,108.19,151.4,149.7Q151.47,158.52,152.3,167.27Z"/></clipPath><linearGradient id="Безымянный_градиент_2" x1="60.18" y1="396.6" x2="427.89" y2="64.93" gradientUnits="userSpaceOnUse"><stop offset="0" stop-color="#122791"/><stop offset="0.47" stop-color="#35f"/><stop offset="1" stop-color="#4867ff"/></linearGradient></defs><g id="Слой_2" data-name="Слой 2"><g id="Layer_1" data-name="Layer 1"><g class="cls-2"><rect class="cls-3" y="-0.32" width="455.61" height="491.44"/></g></g></g></svg>